<svg xmlns="http://www.w3.org/2000/svg" version="1.1" xmlns:xlink="http://www.w3.org/1999/xlink" xmlns:svgjs="http://svgjs.dev/svgjs" width="1500" height="459" viewBox="0 0 1500 459"><g transform="matrix(1,0,0,1,-55.63440772653598,4.9195543358520695)"><svg viewBox="0 0 411 126" data-background-color="#dedede" preserveAspectRatio="xMidYMid meet" height="459" width="1500" xmlns="http://www.w3.org/2000/svg" xmlns:xlink="http://www.w3.org/1999/xlink"><g id="tight-bounds" transform="matrix(1,0,0,1,15.243827717070872,0.6728214329473303)"><svg viewBox="0 0 395.52 119.5068430384055" height="119.5068430384055" width="395.52"><g><svg viewBox="0 0 707.2902601969978 213.70860160789746" height="119.5068430384055" width="395.52"><g><rect width="10.799101542927438" height="171.02583965058426" x="272.70125932703513" y="21.341380978656602" fill="#ffffff" opacity="1" stroke-width="0" stroke="transparent" fill-opacity="1" class="rect-yte-0" data-fill-palette-color="primary" rx="1%" id="yte-0" data-palette-color="#ffffff"></rect></g><g transform="matrix(1,0,0,1,311.7702601969977,21.76681839072272)"><svg viewBox="0 0 395.52 170.17496482645203" height="170.17496482645203" width="395.52"><g id="textblocktransform"><svg viewBox="0 0 395.52 170.17496482645203" height="170.17496482645203" width="395.52" id="textblock"><g><svg viewBox="0 0 395.52 119.74914572864321" height="119.74914572864321" width="395.52"><g transform="matrix(1,0,0,1,0,0)"><svg width="395.52" viewBox="2.1 -35.55 119.39 36.15" height="119.74914572864321" data-palette-color="#ffffff"><g class="wordmark-text-0" data-fill-palette-color="primary" id="text-0"><path d="M13.55-5.1L13.55-5.1Q16.7-5.1 18.23-6.2 19.75-7.3 19.75-9.4L19.75-9.4Q19.75-10.7 19.2-11.6 18.65-12.5 17.73-13.15 16.8-13.8 15.58-14.28 14.35-14.75 13.05-15.2L13.05-15.2Q10.65-16 8.72-16.8 6.8-17.6 5.43-18.68 4.05-19.75 3.3-21.33 2.55-22.9 2.55-25.25L2.55-25.25Q2.55-28.5 3.88-30.53 5.2-32.55 7.2-33.68 9.2-34.8 11.58-35.18 13.95-35.55 16-35.55L16-35.55Q18.6-35.55 20.93-35.15 23.25-34.75 25-34.35L25-34.35 25-28.55Q22.6-29.25 20.05-29.7 17.5-30.15 15.4-30.15L15.4-30.15Q11.8-30.15 10.15-28.88 8.5-27.6 8.5-25.8L8.5-25.8Q8.5-24.45 9.28-23.55 10.05-22.65 11.18-22 12.3-21.35 13.58-20.98 14.85-20.6 15.9-20.3L15.9-20.3Q17.7-19.8 19.5-19.07 21.3-18.35 22.78-17.15 24.25-15.95 25.15-14.18 26.05-12.4 26.05-9.8L26.05-9.8Q26.05-7.2 25.13-5.25 24.2-3.3 22.53-2 20.85-0.7 18.55-0.05 16.25 0.6 13.5 0.6L13.5 0.6Q11.1 0.6 8.13 0.1 5.15-0.4 2.3-1.45L2.3-1.45 2.1-7.6Q3-7.15 4.35-6.73 5.7-6.3 7.28-5.93 8.85-5.55 10.48-5.33 12.1-5.1 13.55-5.1ZM31.65-34.5L31.65-34.5Q32.7-34.7 33.95-34.9 35.2-35.1 36.52-35.25 37.85-35.4 39.2-35.48 40.55-35.55 41.8-35.55L41.8-35.55Q45.55-35.55 48-34.77 50.45-34 51.87-32.77 53.3-31.55 53.85-30.03 54.4-28.5 54.4-27L54.4-27Q54.4-25.65 54-24.3 53.6-22.95 52.75-21.8 51.9-20.65 50.55-19.83 49.2-19 47.35-18.7L47.35-18.7Q49.65-18.5 51.32-17.7 53-16.9 54.1-15.7 55.2-14.5 55.7-13 56.2-11.5 56.2-9.85L56.2-9.85Q56.2-7.85 55.42-5.98 54.65-4.1 52.8-2.65 50.95-1.2 47.87-0.33 44.8 0.55 40.25 0.55L40.25 0.55Q39.35 0.55 38.22 0.53 37.1 0.5 35.92 0.43 34.75 0.35 33.6 0.25 32.45 0.15 31.5 0L31.5 0Q31.6-2.4 31.67-4.2 31.75-6 31.8-8.03 31.85-10.05 31.87-12.63 31.9-15.2 31.9-19.2L31.9-19.2Q31.9-22.8 31.85-26.63 31.8-30.45 31.65-34.5ZM38.4-16.05L38.4-16.05Q38.4-12.45 38.4-9.58 38.4-6.7 38.45-4.15L38.45-4.15Q39.4-3.85 40.37-3.68 41.35-3.5 42.35-3.5L42.35-3.5Q45.5-3.5 47.47-5.35 49.45-7.2 49.45-10.55L49.45-10.55Q49.45-11.85 49.07-12.95 48.7-14.05 47.87-14.85 47.05-15.65 45.75-16.1 44.45-16.55 42.55-16.55L42.55-16.55Q40.6-16.55 38.4-16.05ZM38.5-30.5L38.5-30.5Q38.4-28.45 38.4-25.98 38.4-23.5 38.4-20.2L38.4-20.2Q39.15-20.1 39.82-20.05 40.5-20 41.15-20L41.15-20Q44.85-20 46.5-21.55 48.15-23.1 48.15-25.7L48.15-25.7Q48.15-26.75 47.87-27.73 47.6-28.7 46.95-29.45 46.3-30.2 45.22-30.65 44.15-31.1 42.5-31.1L42.5-31.1Q41.5-31.1 40.52-30.93 39.55-30.75 38.5-30.5ZM82.65-34.5L89.8-35Q89.65-33.4 89.57-31.73 89.5-30.05 89.47-28.03 89.45-26 89.42-23.5 89.4-21 89.4-17.8L89.4-17.8Q89.4-14.8 89.4-12.38 89.4-9.95 89.42-7.85 89.45-5.75 89.47-3.85 89.5-1.95 89.55 0L89.55 0 82.5 0Q82.55-2.1 82.59-3.73 82.65-5.35 82.72-7.05 82.8-8.75 82.84-10.7 82.9-12.65 82.9-15.45L82.9-15.45 68.2-15.45Q68.2-13.05 68.2-10.98 68.2-8.9 68.22-7.03 68.25-5.15 68.27-3.43 68.3-1.7 68.34 0L68.34 0 61.3 0Q61.35-2.4 61.42-4.23 61.5-6.05 61.55-8.03 61.6-10 61.65-12.55 61.7-15.1 61.7-18.95L61.7-18.95Q61.7-22.8 61.65-26.63 61.6-30.45 61.45-34.5L61.45-34.5 68.59-35Q68.45-33.55 68.37-32.02 68.3-30.5 68.27-28.73 68.25-26.95 68.22-24.83 68.2-22.7 68.2-20.05L68.2-20.05 82.9-20.05Q82.9-23.6 82.82-27.18 82.75-30.75 82.65-34.5L82.65-34.5ZM96.99-34.5L96.99-34.5Q99.24-34.9 102.07-35.23 104.89-35.55 107.54-35.55L107.54-35.55Q111.79-35.55 114.52-34.65 117.24-33.75 118.79-32.33 120.34-30.9 120.92-29.13 121.49-27.35 121.49-25.6L121.49-25.6Q121.49-22.45 120.07-20.13 118.64-17.8 116.04-16.45L116.04-16.45Q117.59-15.7 118.62-14.73 119.64-13.75 120.24-12.35 120.84-10.95 121.07-9.03 121.29-7.1 121.29-4.55L121.29-4.55Q121.29-2.5 121.14 0L121.14 0 114.19 0.6Q114.34-1.05 114.44-2.55 114.54-4.05 114.54-5.4L114.54-5.4Q114.54-7.6 114.19-9.25 113.84-10.9 112.94-12.03 112.04-13.15 110.52-13.7 108.99-14.25 106.59-14.25L106.59-14.25Q106.04-14.25 105.29-14.23 104.54-14.2 103.74-14.1L103.74-14.1Q103.74-9.95 103.77-6.6 103.79-3.25 103.89 0L103.89 0 96.84 0Q96.94-2.4 97.02-4.23 97.09-6.05 97.14-8.03 97.19-10 97.22-12.45 97.24-14.9 97.24-18.55L97.24-18.55Q97.24-22.75 97.19-26.6 97.14-30.45 96.99-34.5ZM108.19-31.1L108.19-31.1Q107.19-31.1 106.09-30.93 104.99-30.75 103.84-30.45L103.84-30.45Q103.74-28.35 103.74-25.73 103.74-23.1 103.74-19.4L103.74-19.4 103.74-18.75Q105.14-18.45 106.99-18.45L106.99-18.45Q110.74-18.45 112.82-20.08 114.89-21.7 114.89-24.85L114.89-24.85Q114.89-27.75 113.12-29.43 111.34-31.1 108.19-31.1Z" fill="#ffffff" data-fill-palette-color="primary"></path></g></svg></g></svg></g><g transform="matrix(1,0,0,1,0,148.0190450556784)"><svg viewBox="0 0 375.7439999999999 22.155919770773636" height="22.155919770773636" width="375.7439999999999"><g transform="matrix(1,0,0,1,0,0)"><svg width="375.7439999999999" viewBox="2.1 -38.5 663.03 39.1" height="22.155919770773636" data-palette-color="#d0dde1"><path d="M13.55-5.1L13.55-5.1Q16.7-5.1 18.23-6.2 19.75-7.3 19.75-9.4L19.75-9.4Q19.75-10.7 19.2-11.6 18.65-12.5 17.73-13.15 16.8-13.8 15.58-14.28 14.35-14.75 13.05-15.2L13.05-15.2Q10.65-16 8.72-16.8 6.8-17.6 5.43-18.68 4.05-19.75 3.3-21.33 2.55-22.9 2.55-25.25L2.55-25.25Q2.55-28.5 3.88-30.53 5.2-32.55 7.2-33.68 9.2-34.8 11.58-35.18 13.95-35.55 16-35.55L16-35.55Q18.6-35.55 20.93-35.15 23.25-34.75 25-34.35L25-34.35 25-28.55Q22.6-29.25 20.05-29.7 17.5-30.15 15.4-30.15L15.4-30.15Q11.8-30.15 10.15-28.88 8.5-27.6 8.5-25.8L8.5-25.8Q8.5-24.45 9.28-23.55 10.05-22.65 11.18-22 12.3-21.35 13.58-20.98 14.85-20.6 15.9-20.3L15.9-20.3Q17.7-19.8 19.5-19.07 21.3-18.35 22.78-17.15 24.25-15.95 25.15-14.18 26.05-12.4 26.05-9.8L26.05-9.8Q26.05-7.2 25.13-5.25 24.2-3.3 22.53-2 20.85-0.7 18.55-0.05 16.25 0.6 13.5 0.6L13.5 0.6Q11.1 0.6 8.13 0.1 5.15-0.4 2.3-1.45L2.3-1.45 2.1-7.6Q3-7.15 4.35-6.73 5.7-6.3 7.28-5.93 8.85-5.55 10.48-5.33 12.1-5.1 13.55-5.1ZM53.7-3.45L47.85 0.6Q46.85-0.85 46.25-1.9 45.65-2.95 45.35-4.1L45.35-4.1Q44.6-3.25 43.75-2.43 42.9-1.6 41.87-0.93 40.85-0.25 39.7 0.18 38.55 0.6 37.2 0.6L37.2 0.6Q35.95 0.6 34.77 0.15 33.6-0.3 32.7-1.35 31.8-2.4 31.25-4.2 30.7-6 30.7-8.7L30.7-8.7Q30.7-9.35 30.72-10.73 30.75-12.1 30.8-13.63 30.85-15.15 30.87-16.55 30.9-17.95 30.9-18.7L30.9-18.7Q30.9-20.35 30.67-21.88 30.45-23.4 29.9-24.4L29.9-24.4 36.75-25.6Q37.1-24.45 37.17-23.1 37.25-21.75 37.25-20.75L37.25-20.75Q37.25-19.3 37.17-17.85 37.1-16.4 37.02-15.03 36.95-13.65 36.87-12.43 36.8-11.2 36.8-10.3L36.8-10.3Q36.8-7.35 37.8-6.25 38.8-5.15 40.55-5.15L40.55-5.15Q42-5.15 43.05-5.65 44.1-6.15 44.95-6.85L44.95-6.85Q44.9-7.75 44.9-8.88 44.9-10 44.9-11.45L44.9-11.45Q44.9-13.75 44.9-15.6 44.9-17.45 44.87-19.05 44.85-20.65 44.82-22.08 44.8-23.5 44.75-25L44.75-25 51.5-25Q51.45-23.8 51.4-22.3 51.35-20.8 51.27-19.13 51.2-17.45 51.15-15.68 51.1-13.9 51.1-12.25L51.1-12.25Q51.1-10.3 51.2-9.08 51.3-7.85 51.6-6.93 51.9-6 52.4-5.23 52.9-4.45 53.7-3.45L53.7-3.45ZM57.65-38L64.5-38.5Q64.35-36.85 64.27-35.13 64.2-33.4 64.17-31.35 64.15-29.3 64.12-26.85 64.1-24.4 64.1-21.3L64.1-21.3Q64.85-22.1 65.75-22.88 66.65-23.65 67.67-24.25 68.7-24.85 69.85-25.23 71-25.6 72.25-25.6L72.25-25.6Q73.5-25.6 74.67-25.15 75.85-24.7 76.75-23.65 77.65-22.6 78.2-20.8 78.75-19 78.75-16.3L78.75-16.3Q78.75-15.6 78.72-14.25 78.7-12.9 78.65-11.38 78.6-9.85 78.57-8.45 78.55-7.05 78.55-6.3L78.55-6.3Q78.55-4.65 78.77-3.13 79-1.6 79.55-0.6L79.55-0.6 72.6 0.6Q72.25-0.55 72.17-1.9 72.1-3.25 72.1-4.25L72.1-4.25Q72.1-5.65 72.17-7.13 72.25-8.6 72.32-9.98 72.4-11.35 72.47-12.58 72.55-13.8 72.55-14.7L72.55-14.7Q72.55-17.65 71.55-18.75 70.55-19.85 68.8-19.85L68.8-19.85Q67.35-19.85 66.17-19.38 65-18.9 64.1-18.2L64.1-18.2Q64.1-15.25 64.1-12.8 64.1-10.35 64.12-8.18 64.15-6 64.17-4 64.2-2 64.25 0L64.25 0 57.5 0Q57.55-2.6 57.62-4.6 57.7-6.6 57.75-8.78 57.8-10.95 57.85-13.73 57.9-16.5 57.9-20.7L57.9-20.7Q57.9-24.95 57.85-29.23 57.8-33.5 57.65-38L57.65-38ZM89.54 0.6L89.54 0.6Q86.39 0.6 84.47-1.55 82.54-3.7 82.54-7.15L82.54-7.15Q82.54-10.75 84.64-12.9 86.74-15.05 90.24-15.05L90.24-15.05Q91.69-15.05 93.14-14.65 94.59-14.25 95.74-13.5L95.74-13.5 95.74-16.3Q95.74-18.65 94.84-19.6 93.94-20.55 91.74-20.55L91.74-20.55Q90.24-20.55 88.57-20.18 86.89-19.8 85.89-19.25L85.89-19.25 84.34-24.05Q85.09-24.35 86.14-24.65 87.19-24.95 88.39-25.15 89.59-25.35 90.84-25.48 92.09-25.6 93.14-25.6L93.14-25.6Q101.94-25.6 101.94-17L101.94-17Q101.94-16.25 101.87-14.8 101.79-13.35 101.72-11.78 101.64-10.2 101.57-8.85 101.49-7.5 101.49-6.95L101.49-6.95Q101.49-5.8 101.84-5.3 102.19-4.8 103.14-4.8L103.14-4.8Q103.79-4.8 104.64-5L104.64-5 103.84-0.2Q103.04 0.05 102.37 0.2 101.69 0.35 100.99 0.35L100.99 0.35Q99.14 0.35 97.89-0.68 96.64-1.7 96.39-3.6L96.39-3.6Q95.39-1.65 93.59-0.53 91.79 0.6 89.54 0.6ZM91.94-4L91.94-4Q93.54-4 94.67-5.15 95.79-6.3 95.79-8.05L95.79-8.05Q95.79-9.55 94.89-10.45 93.99-11.35 92.39-11.35L92.39-11.35Q90.74-11.35 89.79-10.35 88.84-9.35 88.84-7.6L88.84-7.6Q88.84-5.95 89.67-4.98 90.49-4 91.94-4ZM106.44-21.55L112.29-25.6Q113.29-24.15 113.89-23.05 114.49-21.95 114.79-20.8L114.79-20.8Q115.54-21.6 116.49-22.48 117.44-23.35 118.52-24.03 119.59-24.7 120.84-25.15 122.09-25.6 123.44-25.6L123.44-25.6Q124.69-25.6 125.87-25.15 127.04-24.7 127.94-23.65 128.84-22.6 129.39-20.8 129.94-19 129.94-16.3L129.94-16.3Q129.94-15.6 129.92-14.25 129.89-12.9 129.84-11.38 129.79-9.85 129.77-8.45 129.74-7.05 129.74-6.3L129.74-6.3Q129.74-4.65 129.97-3.13 130.19-1.6 130.74-0.6L130.74-0.6 123.79 0.6Q123.44-0.55 123.37-1.9 123.29-3.25 123.29-4.25L123.29-4.25Q123.29-5.65 123.37-7.13 123.44-8.6 123.52-9.98 123.59-11.35 123.67-12.58 123.74-13.8 123.74-14.7L123.74-14.7Q123.74-17.65 122.74-18.75 121.74-19.85 119.99-19.85L119.99-19.85Q118.54-19.85 117.32-19.4 116.09-18.95 115.14-18.3L115.14-18.3Q115.24-17.35 115.24-16.2 115.24-15.05 115.24-13.55L115.24-13.55Q115.24-11.25 115.24-9.4 115.24-7.55 115.27-5.95 115.29-4.35 115.32-2.93 115.34-1.5 115.39 0L115.39 0 108.64 0Q108.69-1.2 108.74-2.7 108.79-4.2 108.87-5.88 108.94-7.55 108.99-9.33 109.04-11.1 109.04-12.75L109.04-12.75Q109.04-14.7 108.94-15.93 108.84-17.15 108.54-18.07 108.24-19 107.74-19.78 107.24-20.55 106.44-21.55L106.44-21.55ZM140.99 0.6L140.99 0.6Q137.84 0.6 135.91-1.55 133.99-3.7 133.99-7.15L133.99-7.15Q133.99-10.75 136.09-12.9 138.19-15.05 141.69-15.05L141.69-15.05Q143.14-15.05 144.59-14.65 146.04-14.25 147.19-13.5L147.19-13.5 147.19-16.3Q147.19-18.65 146.29-19.6 145.39-20.55 143.19-20.55L143.19-20.55Q141.69-20.55 140.01-20.18 138.34-19.8 137.34-19.25L137.34-19.25 135.79-24.05Q136.54-24.35 137.59-24.65 138.64-24.95 139.84-25.15 141.04-25.35 142.29-25.48 143.54-25.6 144.59-25.6L144.59-25.6Q153.39-25.6 153.39-17L153.39-17Q153.39-16.25 153.31-14.8 153.24-13.35 153.16-11.78 153.09-10.2 153.01-8.85 152.94-7.5 152.94-6.95L152.94-6.95Q152.94-5.8 153.29-5.3 153.64-4.8 154.59-4.8L154.59-4.8Q155.24-4.8 156.09-5L156.09-5 155.29-0.2Q154.49 0.05 153.81 0.2 153.14 0.35 152.44 0.35L152.44 0.35Q150.59 0.35 149.34-0.68 148.09-1.7 147.84-3.6L147.84-3.6Q146.84-1.65 145.04-0.53 143.24 0.6 140.99 0.6ZM143.39-4L143.39-4Q144.99-4 146.11-5.15 147.24-6.3 147.24-8.05L147.24-8.05Q147.24-9.55 146.34-10.45 145.44-11.35 143.84-11.35L143.84-11.35Q142.19-11.35 141.24-10.35 140.29-9.35 140.29-7.6L140.29-7.6Q140.29-5.95 141.11-4.98 141.94-4 143.39-4ZM171.13-34.5L171.13-34.5Q172.18-34.7 173.43-34.9 174.68-35.1 176.01-35.25 177.33-35.4 178.68-35.48 180.03-35.55 181.28-35.55L181.28-35.55Q185.03-35.55 187.48-34.77 189.93-34 191.36-32.77 192.78-31.55 193.33-30.03 193.88-28.5 193.88-27L193.88-27Q193.88-25.65 193.48-24.3 193.08-22.95 192.23-21.8 191.38-20.65 190.03-19.83 188.68-19 186.83-18.7L186.83-18.7Q189.13-18.5 190.81-17.7 192.48-16.9 193.58-15.7 194.68-14.5 195.18-13 195.68-11.5 195.68-9.85L195.68-9.85Q195.68-7.85 194.91-5.98 194.13-4.1 192.28-2.65 190.43-1.2 187.36-0.33 184.28 0.55 179.73 0.55L179.73 0.55Q178.83 0.55 177.71 0.53 176.58 0.5 175.41 0.43 174.23 0.35 173.08 0.25 171.93 0.15 170.98 0L170.98 0Q171.08-2.4 171.16-4.2 171.23-6 171.28-8.03 171.33-10.05 171.36-12.63 171.38-15.2 171.38-19.2L171.38-19.2Q171.38-22.8 171.33-26.63 171.28-30.45 171.13-34.5ZM177.88-16.05L177.88-16.05Q177.88-12.45 177.88-9.58 177.88-6.7 177.93-4.15L177.93-4.15Q178.88-3.85 179.86-3.68 180.83-3.5 181.83-3.5L181.83-3.5Q184.98-3.5 186.96-5.35 188.93-7.2 188.93-10.55L188.93-10.55Q188.93-11.85 188.56-12.95 188.18-14.05 187.36-14.85 186.53-15.65 185.23-16.1 183.93-16.55 182.03-16.55L182.03-16.55Q180.08-16.55 177.88-16.05ZM177.98-30.5L177.98-30.5Q177.88-28.45 177.88-25.98 177.88-23.5 177.88-20.2L177.88-20.2Q178.63-20.1 179.31-20.05 179.98-20 180.63-20L180.63-20Q184.33-20 185.98-21.55 187.63-23.1 187.63-25.7L187.63-25.7Q187.63-26.75 187.36-27.73 187.08-28.7 186.43-29.45 185.78-30.2 184.71-30.65 183.63-31.1 181.98-31.1L181.98-31.1Q180.98-31.1 180.01-30.93 179.03-30.75 177.98-30.5ZM218.18-11.3L205.48-11.3Q205.73-7.5 207.03-5.98 208.33-4.45 210.98-4.45L210.98-4.45Q212.98-4.45 214.76-5.05 216.53-5.65 217.68-6.15L217.68-6.15 217.68-2Q216.08-0.55 213.68 0.03 211.28 0.6 209.03 0.6L209.03 0.6Q207.18 0.6 205.38 0.15 203.58-0.3 202.16-1.58 200.73-2.85 199.86-5.13 198.98-7.4 198.98-11.1L198.98-11.1Q198.98-14.75 199.88-17.48 200.78-20.2 202.36-22 203.93-23.8 206.06-24.7 208.18-25.6 210.68-25.6L210.68-25.6Q213.23-25.6 214.86-24.73 216.48-23.85 217.41-22.5 218.33-21.15 218.66-19.5 218.98-17.85 218.98-16.3L218.98-16.3Q218.98-14.7 218.76-13.4 218.53-12.1 218.18-11.3L218.18-11.3ZM209.78-21.95L209.78-21.95Q207.83-21.95 206.76-20.28 205.68-18.6 205.48-15L205.48-15 213.73-15Q213.73-15.2 213.76-15.5 213.78-15.8 213.78-16.05L213.78-16.05Q213.78-16.85 213.63-17.88 213.48-18.9 213.03-19.8 212.58-20.7 211.81-21.33 211.03-21.95 209.78-21.95ZM246.28-3.45L240.43 0.6Q239.43-0.85 238.83-1.9 238.23-2.95 237.93-4.1L237.93-4.1Q237.18-3.25 236.33-2.43 235.48-1.6 234.45-0.93 233.43-0.25 232.28 0.18 231.13 0.6 229.78 0.6L229.78 0.6Q228.53 0.6 227.35 0.15 226.18-0.3 225.28-1.35 224.38-2.4 223.83-4.2 223.28-6 223.28-8.7L223.28-8.7Q223.28-9.35 223.3-10.73 223.33-12.1 223.38-13.63 223.43-15.15 223.45-16.55 223.48-17.95 223.48-18.7L223.48-18.7Q223.48-20.35 223.25-21.88 223.03-23.4 222.48-24.4L222.48-24.4 229.33-25.6Q229.68-24.45 229.75-23.1 229.83-21.75 229.83-20.75L229.83-20.75Q229.83-19.3 229.75-17.85 229.68-16.4 229.6-15.03 229.53-13.65 229.45-12.43 229.38-11.2 229.38-10.3L229.38-10.3Q229.38-7.35 230.38-6.25 231.38-5.15 233.13-5.15L233.13-5.15Q234.58-5.15 235.63-5.65 236.68-6.15 237.53-6.85L237.53-6.85Q237.48-7.75 237.48-8.88 237.48-10 237.48-11.45L237.48-11.45Q237.48-13.75 237.48-15.6 237.48-17.45 237.45-19.05 237.43-20.65 237.4-22.08 237.38-23.5 237.33-25L237.33-25 244.08-25Q244.03-23.8 243.98-22.3 243.93-20.8 243.85-19.13 243.78-17.45 243.73-15.68 243.68-13.9 243.68-12.25L243.68-12.25Q243.68-10.3 243.78-9.08 243.88-7.85 244.18-6.93 244.48-6 244.98-5.23 245.48-4.45 246.28-3.45L246.28-3.45ZM250.23-38L257.08-38.5Q256.93-36.75 256.85-34.9 256.78-33.05 256.75-30.83 256.73-28.6 256.7-25.85 256.68-23.1 256.68-19.55L256.68-19.55Q256.68-16.25 256.68-13.58 256.68-10.9 256.7-8.6 256.73-6.3 256.75-4.23 256.78-2.15 256.83 0L256.83 0 250.08 0Q250.13-2.6 250.2-4.6 250.28-6.6 250.33-8.78 250.38-10.95 250.43-13.73 250.48-16.5 250.48-20.7L250.48-20.7Q250.48-24.95 250.43-29.23 250.38-33.5 250.23-38L250.23-38ZM268.07 0.6L268.07 0.6Q264.92 0.6 263-1.55 261.07-3.7 261.07-7.15L261.07-7.15Q261.07-10.75 263.17-12.9 265.27-15.05 268.77-15.05L268.77-15.05Q270.22-15.05 271.67-14.65 273.12-14.25 274.27-13.5L274.27-13.5 274.27-16.3Q274.27-18.65 273.37-19.6 272.47-20.55 270.27-20.55L270.27-20.55Q268.77-20.55 267.1-20.18 265.42-19.8 264.42-19.25L264.42-19.25 262.87-24.05Q263.62-24.35 264.67-24.65 265.72-24.95 266.92-25.15 268.12-25.35 269.37-25.48 270.62-25.6 271.67-25.6L271.67-25.6Q280.47-25.6 280.47-17L280.47-17Q280.47-16.25 280.4-14.8 280.32-13.35 280.25-11.78 280.17-10.2 280.1-8.85 280.02-7.5 280.02-6.95L280.02-6.95Q280.02-5.8 280.37-5.3 280.72-4.8 281.67-4.8L281.67-4.8Q282.32-4.8 283.17-5L283.17-5 282.37-0.2Q281.57 0.05 280.9 0.2 280.22 0.35 279.52 0.35L279.52 0.35Q277.67 0.35 276.42-0.68 275.17-1.7 274.92-3.6L274.92-3.6Q273.92-1.65 272.12-0.53 270.32 0.6 268.07 0.6ZM270.47-4L270.47-4Q272.07-4 273.2-5.15 274.32-6.3 274.32-8.05L274.32-8.05Q274.32-9.55 273.42-10.45 272.52-11.35 270.92-11.35L270.92-11.35Q269.27-11.35 268.32-10.35 267.37-9.35 267.37-7.6L267.37-7.6Q267.37-5.95 268.2-4.98 269.02-4 270.47-4ZM286.92-38L293.77-38.5Q293.62-36.85 293.55-35.13 293.47-33.4 293.45-31.35 293.42-29.3 293.4-26.85 293.37-24.4 293.37-21.3L293.37-21.3Q294.12-22.1 295.02-22.88 295.92-23.65 296.95-24.25 297.97-24.85 299.12-25.23 300.27-25.6 301.52-25.6L301.52-25.6Q302.77-25.6 303.95-25.15 305.12-24.7 306.02-23.65 306.92-22.6 307.47-20.8 308.02-19 308.02-16.3L308.02-16.3Q308.02-15.6 308-14.25 307.97-12.9 307.92-11.38 307.87-9.85 307.85-8.45 307.82-7.05 307.82-6.3L307.82-6.3Q307.82-4.65 308.05-3.13 308.27-1.6 308.82-0.6L308.82-0.6 301.87 0.6Q301.52-0.55 301.45-1.9 301.37-3.25 301.37-4.25L301.37-4.25Q301.37-5.65 301.45-7.13 301.52-8.6 301.6-9.98 301.67-11.35 301.75-12.58 301.82-13.8 301.82-14.7L301.82-14.7Q301.82-17.65 300.82-18.75 299.82-19.85 298.07-19.85L298.07-19.85Q296.62-19.85 295.45-19.38 294.27-18.9 293.37-18.2L293.37-18.2Q293.37-15.25 293.37-12.8 293.37-10.35 293.4-8.18 293.42-6 293.45-4 293.47-2 293.52 0L293.52 0 286.77 0Q286.82-2.6 286.9-4.6 286.97-6.6 287.02-8.78 287.07-10.95 287.12-13.73 287.17-16.5 287.17-20.7L287.17-20.7Q287.17-24.95 287.12-29.23 287.07-33.5 286.92-38L286.92-38ZM346.07-34.5L353.22-35Q353.07-33.4 352.99-31.73 352.92-30.05 352.89-28.03 352.87-26 352.84-23.5 352.82-21 352.82-17.8L352.82-17.8Q352.82-14.8 352.82-12.38 352.82-9.95 352.84-7.85 352.87-5.75 352.89-3.85 352.92-1.95 352.97 0L352.97 0 345.92 0Q345.97-2.1 346.02-3.73 346.07-5.35 346.14-7.05 346.22-8.75 346.27-10.7 346.32-12.65 346.32-15.45L346.32-15.45 331.62-15.45Q331.62-13.05 331.62-10.98 331.62-8.9 331.64-7.03 331.67-5.15 331.69-3.43 331.72-1.7 331.77 0L331.77 0 324.72 0Q324.77-2.4 324.84-4.23 324.92-6.05 324.97-8.03 325.02-10 325.07-12.55 325.12-15.1 325.12-18.95L325.12-18.95Q325.12-22.8 325.07-26.63 325.02-30.45 324.87-34.5L324.87-34.5 332.02-35Q331.87-33.55 331.79-32.02 331.72-30.5 331.69-28.73 331.67-26.95 331.64-24.83 331.62-22.7 331.62-20.05L331.62-20.05 346.32-20.05Q346.32-23.6 346.24-27.18 346.17-30.75 346.07-34.5L346.07-34.5ZM369.41-21.5L369.41-21.5Q367.06-21.5 365.81-19.03 364.56-16.55 364.56-12.25L364.56-12.25Q364.56-8.05 365.59-5.73 366.61-3.4 369.16-3.4L369.16-3.4Q371.51-3.4 372.81-5.98 374.11-8.55 374.11-12.85L374.11-12.85Q374.11-14.85 373.91-16.45 373.71-18.05 373.19-19.18 372.66-20.3 371.74-20.9 370.81-21.5 369.41-21.5ZM358.01-12.1L358.01-12.1Q358.01-15.2 358.86-17.7 359.71-20.2 361.24-21.95 362.76-23.7 364.96-24.65 367.16-25.6 369.86-25.6L369.86-25.6Q374.96-25.6 377.79-22.35 380.61-19.1 380.61-13.25L380.61-13.25Q380.61-10.1 379.76-7.55 378.91-5 377.36-3.18 375.81-1.35 373.64-0.38 371.46 0.6 368.81 0.6L368.81 0.6Q366.31 0.6 364.31-0.3 362.31-1.2 360.91-2.85 359.51-4.5 358.76-6.85 358.01-9.2 358.01-12.1ZM383.16-21.45L382.81-24.6Q384.46-24.7 385.51-25.18 386.56-25.65 387.24-26.58 387.91-27.5 388.36-29 388.81-30.5 389.26-32.6L389.26-32.6 393.91-33.95Q393.46-31.2 393.21-29.1 392.96-27 392.76-25L392.76-25 398.16-25 397.71-20.75 392.51-21.1Q392.31-18.1 392.24-15.58 392.16-13.05 392.16-11.25L392.16-11.25Q392.16-9.2 392.29-7.98 392.41-6.75 392.69-6.08 392.96-5.4 393.44-5.18 393.91-4.95 394.66-4.95L394.66-4.95Q395.66-4.95 396.61-5.23 397.56-5.5 398.21-5.9L398.21-5.9 397.46-0.7Q396.26-0.05 395.21 0.28 394.16 0.6 392.71 0.6L392.71 0.6Q391.06 0.6 389.81 0.1 388.56-0.4 387.74-1.58 386.91-2.75 386.51-4.63 386.11-6.5 386.11-9.2L386.11-9.2Q386.11-11.45 386.34-14.7 386.56-17.95 386.81-21.45L386.81-21.45 383.16-21.45ZM420.26-11.3L407.56-11.3Q407.81-7.5 409.11-5.98 410.41-4.45 413.06-4.45L413.06-4.45Q415.06-4.45 416.83-5.05 418.61-5.65 419.76-6.15L419.76-6.15 419.76-2Q418.16-0.55 415.76 0.03 413.36 0.6 411.11 0.6L411.11 0.6Q409.26 0.6 407.46 0.15 405.66-0.3 404.23-1.58 402.81-2.85 401.93-5.13 401.06-7.4 401.06-11.1L401.06-11.1Q401.06-14.75 401.96-17.48 402.86-20.2 404.43-22 406.01-23.8 408.13-24.7 410.26-25.6 412.76-25.6L412.76-25.6Q415.31-25.6 416.93-24.73 418.56-23.85 419.48-22.5 420.41-21.15 420.73-19.5 421.06-17.85 421.06-16.3L421.06-16.3Q421.06-14.7 420.83-13.4 420.61-12.1 420.26-11.3L420.26-11.3ZM411.86-21.95L411.86-21.95Q409.91-21.95 408.83-20.28 407.76-18.6 407.56-15L407.56-15 415.81-15Q415.81-15.2 415.83-15.5 415.86-15.8 415.86-16.05L415.86-16.05Q415.86-16.85 415.71-17.88 415.56-18.9 415.11-19.8 414.66-20.7 413.88-21.33 413.11-21.95 411.86-21.95ZM425.61-38L432.46-38.5Q432.31-36.75 432.23-34.9 432.16-33.05 432.13-30.83 432.11-28.6 432.08-25.85 432.06-23.1 432.06-19.55L432.06-19.55Q432.06-16.25 432.06-13.58 432.06-10.9 432.08-8.6 432.11-6.3 432.13-4.23 432.16-2.15 432.21 0L432.21 0 425.46 0Q425.51-2.6 425.58-4.6 425.66-6.6 425.71-8.78 425.76-10.95 425.81-13.73 425.86-16.5 425.86-20.7L425.86-20.7Q425.86-24.95 425.81-29.23 425.76-33.5 425.61-38L425.61-38ZM445.45-4.7L445.45-4.7Q446.85-4.7 447.45-5.25 448.05-5.8 448.05-6.8L448.05-6.8Q448.05-7.45 447.83-7.9 447.6-8.35 447.13-8.7 446.65-9.05 445.9-9.38 445.15-9.7 444.1-10.1L444.1-10.1Q442.9-10.55 441.68-11.1 440.45-11.65 439.48-12.5 438.5-13.35 437.9-14.7 437.3-16.05 437.3-18.1L437.3-18.1Q437.3-20.5 438.23-21.98 439.15-23.45 440.5-24.25 441.85-25.05 443.4-25.33 444.95-25.6 446.25-25.6L446.25-25.6Q447.7-25.6 449.4-25.35 451.1-25.1 452.25-24.65L452.25-24.65 452.25-19.35Q451.4-19.65 450.45-19.88 449.5-20.1 448.6-20.25 447.7-20.4 446.9-20.48 446.1-20.55 445.6-20.55L445.6-20.55Q442.4-20.55 442.4-18.35L442.4-18.35Q442.4-16.8 443.8-16.03 445.2-15.25 447.25-14.5L447.25-14.5Q448.5-14.05 449.6-13.48 450.7-12.9 451.53-12.03 452.35-11.15 452.83-9.85 453.3-8.55 453.3-6.7L453.3-6.7Q453.3-2.9 451.2-1.15 449.1 0.6 445.75 0.6L445.75 0.6Q443.95 0.6 441.8 0.1 439.65-0.4 437.55-1.45L437.55-1.45 437.35-7.1Q438-6.65 439-6.23 440-5.8 441.15-5.48 442.3-5.15 443.43-4.93 444.55-4.7 445.45-4.7ZM488.15-20.45L498.45-21.35 498-16.85 493.25-16.6Q493.5-14.75 493.62-13.35 493.75-11.95 493.75-10.7L493.75-10.7Q493.75-9.7 493.67-8.75 493.6-7.8 493.35-6.95L493.35-6.95Q495.6-5.05 497.77-3.33 499.95-1.6 502.05 0L502.05 0 493.95 0 490.8-2.35Q489.35-1 487.1-0.2 484.85 0.6 481.5 0.6L481.5 0.6Q478.85 0.6 476.5 0.03 474.15-0.55 472.37-1.8 470.6-3.05 469.57-5.05 468.55-7.05 468.55-9.95L468.55-9.95Q468.55-13.25 469.85-15.65 471.15-18.05 473.25-19.9L473.25-19.9Q472.15-21.8 471.55-23.75 470.95-25.7 470.95-27.65L470.95-27.65Q470.95-30.2 471.92-31.75 472.9-33.3 474.37-34.18 475.85-35.05 477.52-35.33 479.2-35.6 480.55-35.6L480.55-35.6Q483.75-35.6 486.4-34.5L486.4-34.5 486.4-29.3Q485.25-30 483.62-30.58 482-31.15 480.55-31.15L480.55-31.15Q480-31.15 479.32-31.03 478.65-30.9 478.07-30.5 477.5-30.1 477.1-29.4 476.7-28.7 476.7-27.6L476.7-27.6Q476.7-25.85 477.67-23.85 478.65-21.85 480.3-19.7 481.95-17.55 484.17-15.28 486.4-13 488.9-10.75L488.9-10.75Q488.9-11.55 488.8-12.85 488.7-14.15 488.57-15.53 488.45-16.9 488.32-18.23 488.2-19.55 488.15-20.45L488.15-20.45ZM486.75-5.55L486.75-5.55Q484-7.8 481.35-10.25 478.7-12.7 476.5-15.35L476.5-15.35Q475.8-14.25 475.47-12.95 475.15-11.65 475.15-10.2L475.15-10.2Q475.15-7.3 476.55-5.63 477.95-3.95 481.5-3.95L481.5-3.95Q483.35-3.95 484.62-4.4 485.9-4.85 486.75-5.55ZM515.94-34.5L515.94-34.5Q518.19-34.9 521.02-35.23 523.84-35.55 526.49-35.55L526.49-35.55Q530.74-35.55 533.47-34.65 536.19-33.75 537.74-32.33 539.29-30.9 539.87-29.13 540.44-27.35 540.44-25.6L540.44-25.6Q540.44-22.45 539.02-20.13 537.59-17.8 534.99-16.45L534.99-16.45Q536.54-15.7 537.57-14.73 538.59-13.75 539.19-12.35 539.79-10.95 540.02-9.03 540.24-7.1 540.24-4.55L540.24-4.55Q540.24-2.5 540.09 0L540.09 0 533.14 0.6Q533.29-1.05 533.39-2.55 533.49-4.05 533.49-5.4L533.49-5.4Q533.49-7.6 533.14-9.25 532.79-10.9 531.89-12.03 530.99-13.15 529.47-13.7 527.94-14.25 525.54-14.25L525.54-14.25Q524.99-14.25 524.24-14.23 523.49-14.2 522.69-14.1L522.69-14.1Q522.69-9.95 522.72-6.6 522.74-3.25 522.84 0L522.84 0 515.79 0Q515.89-2.4 515.97-4.23 516.04-6.05 516.09-8.03 516.14-10 516.17-12.45 516.19-14.9 516.19-18.55L516.19-18.55Q516.19-22.75 516.14-26.6 516.09-30.45 515.94-34.5ZM527.14-31.1L527.14-31.1Q526.14-31.1 525.04-30.93 523.94-30.75 522.79-30.45L522.79-30.45Q522.69-28.35 522.69-25.73 522.69-23.1 522.69-19.4L522.69-19.4 522.69-18.75Q524.09-18.45 525.94-18.45L525.94-18.45Q529.69-18.45 531.77-20.08 533.84-21.7 533.84-24.85L533.84-24.85Q533.84-27.75 532.07-29.43 530.29-31.1 527.14-31.1ZM563.54-11.3L550.84-11.3Q551.09-7.5 552.39-5.98 553.69-4.45 556.34-4.45L556.34-4.45Q558.34-4.45 560.12-5.05 561.89-5.65 563.04-6.15L563.04-6.15 563.04-2Q561.44-0.55 559.04 0.03 556.64 0.6 554.39 0.6L554.39 0.6Q552.54 0.6 550.74 0.15 548.94-0.3 547.51-1.58 546.09-2.85 545.22-5.13 544.34-7.4 544.34-11.1L544.34-11.1Q544.34-14.75 545.24-17.48 546.14-20.2 547.72-22 549.29-23.8 551.42-24.7 553.54-25.6 556.04-25.6L556.04-25.6Q558.59-25.6 560.22-24.73 561.84-23.85 562.76-22.5 563.69-21.15 564.01-19.5 564.34-17.85 564.34-16.3L564.34-16.3Q564.34-14.7 564.12-13.4 563.89-12.1 563.54-11.3L563.54-11.3ZM555.14-21.95L555.14-21.95Q553.19-21.95 552.12-20.28 551.04-18.6 550.84-15L550.84-15 559.09-15Q559.09-15.2 559.12-15.5 559.14-15.8 559.14-16.05L559.14-16.05Q559.14-16.85 558.99-17.88 558.84-18.9 558.39-19.8 557.94-20.7 557.17-21.33 556.39-21.95 555.14-21.95ZM576.14-4.7L576.14-4.7Q577.54-4.7 578.14-5.25 578.74-5.8 578.74-6.8L578.74-6.8Q578.74-7.45 578.51-7.9 578.29-8.35 577.81-8.7 577.34-9.05 576.59-9.38 575.84-9.7 574.79-10.1L574.79-10.1Q573.59-10.55 572.36-11.1 571.14-11.65 570.16-12.5 569.19-13.35 568.59-14.7 567.99-16.05 567.99-18.1L567.99-18.1Q567.99-20.5 568.91-21.98 569.84-23.45 571.19-24.25 572.54-25.05 574.09-25.33 575.64-25.6 576.94-25.6L576.94-25.6Q578.39-25.6 580.09-25.35 581.79-25.1 582.94-24.65L582.94-24.65 582.94-19.35Q582.09-19.65 581.14-19.88 580.19-20.1 579.29-20.25 578.39-20.4 577.59-20.48 576.79-20.55 576.29-20.55L576.29-20.55Q573.09-20.55 573.09-18.35L573.09-18.35Q573.09-16.8 574.49-16.03 575.89-15.25 577.94-14.5L577.94-14.5Q579.19-14.05 580.29-13.48 581.39-12.9 582.21-12.03 583.04-11.15 583.51-9.85 583.99-8.55 583.99-6.7L583.99-6.7Q583.99-2.9 581.89-1.15 579.79 0.6 576.44 0.6L576.44 0.6Q574.64 0.6 572.49 0.1 570.34-0.4 568.24-1.45L568.24-1.45 568.04-7.1Q568.69-6.65 569.69-6.23 570.69-5.8 571.84-5.48 572.99-5.15 574.11-4.93 575.24-4.7 576.14-4.7ZM598.73-21.5L598.73-21.5Q596.38-21.5 595.13-19.03 593.88-16.55 593.88-12.25L593.88-12.25Q593.88-8.05 594.91-5.73 595.93-3.4 598.48-3.4L598.48-3.4Q600.83-3.4 602.13-5.98 603.43-8.55 603.43-12.85L603.43-12.85Q603.43-14.85 603.23-16.45 603.03-18.05 602.51-19.18 601.98-20.3 601.06-20.9 600.13-21.5 598.73-21.5ZM587.33-12.1L587.33-12.1Q587.33-15.2 588.18-17.7 589.03-20.2 590.56-21.95 592.08-23.7 594.28-24.65 596.48-25.6 599.18-25.6L599.18-25.6Q604.28-25.6 607.11-22.35 609.93-19.1 609.93-13.25L609.93-13.25Q609.93-10.1 609.08-7.55 608.23-5 606.68-3.18 605.13-1.35 602.96-0.38 600.78 0.6 598.13 0.6L598.13 0.6Q595.63 0.6 593.63-0.3 591.63-1.2 590.23-2.85 588.83-4.5 588.08-6.85 587.33-9.2 587.33-12.1ZM612.68-21.85L618.53-25.9Q619.58-24.25 620.18-23.03 620.78-21.8 621.03-20.45L621.03-20.45Q621.53-21.2 622.28-22.08 623.03-22.95 623.98-23.73 624.93-24.5 626.08-25.1 627.23-25.7 628.53-25.9L628.53-25.9 628.98-18.8Q626.53-18.8 624.43-18.38 622.33-17.95 621.43-16.95L621.43-16.95Q621.48-16 621.48-14.88 621.48-13.75 621.48-12.35L621.48-12.35Q621.48-10.75 621.53-8.93 621.58-7.1 621.66-5.43 621.73-3.75 621.83-2.3 621.93-0.85 622.03 0L622.03 0 614.98 0Q615.03-1.05 615.08-2.45 615.13-3.85 615.18-5.35 615.23-6.85 615.26-8.43 615.28-10 615.28-11.45L615.28-11.45Q615.28-13.75 615.18-15.23 615.08-16.7 614.78-17.78 614.48-18.85 613.98-19.75 613.48-20.65 612.68-21.85L612.68-21.85ZM630.88-21.45L630.53-24.6Q632.18-24.7 633.23-25.18 634.28-25.65 634.95-26.58 635.63-27.5 636.08-29 636.53-30.5 636.98-32.6L636.98-32.6 641.63-33.95Q641.18-31.2 640.93-29.1 640.68-27 640.48-25L640.48-25 645.88-25 645.43-20.75 640.23-21.1Q640.03-18.1 639.95-15.58 639.88-13.05 639.88-11.25L639.88-11.25Q639.88-9.2 640-7.98 640.13-6.75 640.4-6.08 640.68-5.4 641.15-5.18 641.63-4.95 642.38-4.95L642.38-4.95Q643.38-4.95 644.33-5.23 645.28-5.5 645.93-5.9L645.93-5.9 645.18-0.7Q643.98-0.05 642.93 0.28 641.88 0.6 640.43 0.6L640.43 0.6Q638.78 0.6 637.53 0.1 636.28-0.4 635.45-1.58 634.63-2.75 634.23-4.63 633.83-6.5 633.83-9.2L633.83-9.2Q633.83-11.45 634.05-14.7 634.28-17.95 634.53-21.45L634.53-21.45 630.88-21.45ZM657.28-4.7L657.28-4.7Q658.68-4.7 659.28-5.25 659.88-5.8 659.88-6.8L659.88-6.8Q659.88-7.45 659.65-7.9 659.43-8.35 658.95-8.7 658.48-9.05 657.73-9.38 656.98-9.7 655.93-10.1L655.93-10.1Q654.73-10.55 653.5-11.1 652.28-11.65 651.3-12.5 650.33-13.35 649.73-14.7 649.13-16.05 649.13-18.1L649.13-18.1Q649.13-20.5 650.05-21.98 650.98-23.45 652.33-24.25 653.68-25.05 655.23-25.33 656.78-25.6 658.08-25.6L658.08-25.6Q659.53-25.6 661.23-25.35 662.93-25.1 664.08-24.65L664.08-24.65 664.08-19.35Q663.23-19.65 662.28-19.88 661.33-20.1 660.43-20.25 659.53-20.4 658.73-20.48 657.93-20.55 657.43-20.55L657.43-20.55Q654.23-20.55 654.23-18.35L654.23-18.35Q654.23-16.8 655.63-16.03 657.03-15.25 659.08-14.5L659.08-14.5Q660.33-14.05 661.43-13.48 662.53-12.9 663.35-12.03 664.18-11.15 664.65-9.85 665.13-8.55 665.13-6.7L665.13-6.7Q665.13-2.9 663.03-1.15 660.93 0.6 657.58 0.6L657.58 0.6Q655.78 0.6 653.63 0.1 651.48-0.4 649.38-1.45L649.38-1.45 649.18-7.1Q649.83-6.65 650.83-6.23 651.83-5.8 652.98-5.48 654.13-5.15 655.25-4.93 656.38-4.7 657.28-4.7Z" opacity="1" transform="matrix(1,0,0,1,0,0)" fill="#d0dde1" class="slogan-text-1" data-fill-palette-color="secondary" id="text-1"></path></svg></g></svg></g></svg></g></svg></g><g><svg viewBox="0 0 244.43135999999998 213.70860160789746" height="213.70860160789746" width="244.43135999999998"><g><svg xmlns="http://www.w3.org/2000/svg" xmlns:xlink="http://www.w3.org/1999/xlink" version="1.1" x="0" y="0" viewBox="10.000222298682127 15.026534080237807 80.00311683612318 69.9474659197622" enable-background="new 0 0 100 100" xml:space="preserve" height="213.70860160789746" width="244.43135999999998" class="icon-icon-0" data-fill-palette-color="accent" id="icon-0"><path d="M85.954 36.922C85.472 36.922 84.982 36.835 84.505 36.652L50 23.403 15.495 36.652A4.043 4.043 0 1 1 12.596 29.101L48.55 15.295A4.05 4.05 0 0 1 51.45 15.295L87.404 29.101A4.044 4.044 0 0 1 85.954 36.922" fill="#d0dde1" data-fill-palette-color="accent"></path><g fill="#d0dde1" data-fill-palette-color="accent"><circle cx="26.491" cy="53.376" r="7.6" fill="#d0dde1" data-fill-palette-color="accent"></circle><path d="M40.647 71.829H22.447A4.044 4.044 0 1 1 22.447 63.741H36.603V49.585A4.044 4.044 0 1 1 44.692 49.585V67.785A4.044 4.044 0 0 1 40.647 71.829" fill="#d0dde1" data-fill-palette-color="accent"></path><path d="M81.092 62.603V71.829H47.472V53.376H68.579C75.531 53.376 81.092 54.893 81.092 62.603" fill="#d0dde1" data-fill-palette-color="accent"></path></g><path d="M82.807 84.974H17.193A4.044 4.044 0 1 1 17.193 76.886H82.807A4.044 4.044 0 1 1 82.807 84.974" fill="#d0dde1" data-fill-palette-color="accent"></path></svg></g></svg></g></svg></g><defs></defs></svg><rect width="395.52" height="119.5068430384055" fill="none" stroke="none" visibility="hidden"></rect></g></svg></g></svg>